<?xml version="1.0" encoding="UTF-8" standalone="no"?>
<!-- Created with Inkscape (http://www.inkscape.org/) -->

<svg
   width="119.99998mm"
   height="83.022827mm"
   viewBox="0 0 119.99998 83.022827"
   version="1.1"
   id="svg5"
   xmlns:xlink="http://www.w3.org/1999/xlink"
   xmlns="http://www.w3.org/2000/svg"
   xmlns:svg="http://www.w3.org/2000/svg">
  <defs
     id="defs2">
    <linearGradient
       id="linearGradient2355">
      <stop
         style="stop-color:#ffffff;stop-opacity:1;"
         offset="0"
         id="stop2353" />
    </linearGradient>
    <linearGradient
       id="linearGradient893">
      <stop
         style="stop-color:#000000;stop-opacity:1;"
         offset="0"
         id="stop891" />
    </linearGradient>
    <linearGradient
       id="linearGradient885">
      <stop
         style="stop-color:#00ffc7;stop-opacity:1;"
         offset="0"
         id="stop883" />
    </linearGradient>
    <linearGradient
       id="linearGradient12607">
      <stop
         style="stop-color:#323232;stop-opacity:1;"
         offset="0"
         id="stop12605" />
    </linearGradient>
    <linearGradient
       id="linearGradient12162">
      <stop
         style="stop-color:#ffffff;stop-opacity:1;"
         offset="0"
         id="stop12160" />
    </linearGradient>
    <linearGradient
       id="linearGradient11430">
      <stop
         style="stop-color:#1e1f1f;stop-opacity:1;"
         offset="0"
         id="stop11428" />
    </linearGradient>
    <linearGradient
       id="linearGradient10585">
      <stop
         style="stop-color:#ffffff;stop-opacity:1;"
         offset="0"
         id="stop10583" />
    </linearGradient>
    <linearGradient
       id="linearGradient7178">
      <stop
         style="stop-color:#00ee79;stop-opacity:0.65490198;"
         offset="0"
         id="stop7176" />
    </linearGradient>
    <linearGradient
       id="linearGradient7172">
      <stop
         style="stop-color:#ffffff;stop-opacity:1;"
         offset="0"
         id="stop7170" />
    </linearGradient>
    <linearGradient
       id="linearGradient3879">
      <stop
         style="stop-color:#ffffff;stop-opacity:1;"
         offset="0"
         id="stop3877" />
    </linearGradient>
    <linearGradient
       id="linearGradient1910">
      <stop
         style="stop-color:#ffffff;stop-opacity:0.14354067;"
         offset="0"
         id="stop1908" />
    </linearGradient>
    <linearGradient
       xlink:href="#linearGradient3879"
       id="linearGradient3881"
       x1="45.000008"
       y1="148.49998"
       x2="165.00005"
       y2="148.49998"
       gradientUnits="userSpaceOnUse"
       gradientTransform="matrix(0.97069954,0,0,0.94505726,3.0765436,8.1589927)" />
    <linearGradient
       xlink:href="#linearGradient7178"
       id="linearGradient7180"
       x1="125.75112"
       y1="169.40118"
       x2="150.79794"
       y2="169.40118"
       gradientUnits="userSpaceOnUse" />
    <linearGradient
       xlink:href="#linearGradient7178"
       id="linearGradient10192"
       gradientUnits="userSpaceOnUse"
       x1="125.75112"
       y1="169.40118"
       x2="150.79794"
       y2="169.40118" />
    <linearGradient
       xlink:href="#linearGradient7178"
       id="linearGradient10194"
       gradientUnits="userSpaceOnUse"
       x1="125.75112"
       y1="169.40118"
       x2="150.79794"
       y2="169.40118" />
    <linearGradient
       xlink:href="#linearGradient7178"
       id="linearGradient10196"
       gradientUnits="userSpaceOnUse"
       x1="125.75112"
       y1="169.40118"
       x2="150.79794"
       y2="169.40118" />
    <linearGradient
       xlink:href="#linearGradient893"
       id="linearGradient11432"
       x1="45.109604"
       y1="59.531296"
       x2="210.23048"
       y2="59.531296"
       gradientUnits="userSpaceOnUse" />
    <linearGradient
       xlink:href="#linearGradient11430"
       id="linearGradient12609"
       x1="45.000008"
       y1="148.49998"
       x2="164.99998"
       y2="148.49998"
       gradientUnits="userSpaceOnUse" />
    <linearGradient
       xlink:href="#linearGradient893"
       id="linearGradient895"
       x1="19.545849"
       y1="48.731915"
       x2="71.811813"
       y2="48.731915"
       gradientUnits="userSpaceOnUse" />
    <linearGradient
       xlink:href="#linearGradient893"
       id="linearGradient897"
       x1="19.545849"
       y1="48.731915"
       x2="71.811813"
       y2="48.731915"
       gradientUnits="userSpaceOnUse" />
    <linearGradient
       xlink:href="#linearGradient12162"
       id="linearGradient2357"
       x1="44.863117"
       y1="59.53027"
       x2="213.44833"
       y2="59.53027"
       gradientUnits="userSpaceOnUse" />
    <linearGradient
       xlink:href="#linearGradient12162"
       id="linearGradient2359"
       gradientUnits="userSpaceOnUse"
       x1="19.545849"
       y1="48.731915"
       x2="71.811813"
       y2="48.731915"
       gradientTransform="matrix(1.0319006,0,0,1.0182081,-0.88624958,-0.197351)" />
    <linearGradient
       xlink:href="#linearGradient12162"
       id="linearGradient2368"
       gradientUnits="userSpaceOnUse"
       x1="19.545849"
       y1="48.731915"
       x2="71.811813"
       y2="48.731915"
       gradientTransform="matrix(1.0424542,0,0,0.99799063,-2.3453523,0.91966067)" />
    <linearGradient
       xlink:href="#linearGradient12162"
       id="linearGradient2378"
       x1="44.863117"
       y1="59.53027"
       x2="213.44835"
       y2="59.53027"
       gradientUnits="userSpaceOnUse" />
    <linearGradient
       xlink:href="#linearGradient12162"
       id="linearGradient8063"
       gradientUnits="userSpaceOnUse"
       gradientTransform="matrix(0.75366001,0,0,0.75365998,15.93576,40.042063)"
       x1="53.441322"
       y1="141.86887"
       x2="166.37434"
       y2="141.86887" />
  </defs>
  <g
     id="layer1"
     transform="translate(-45.000009,-118.5)">
    <g
       id="g10591"
       transform="matrix(0.26764601,-0.04025839,0.03484271,0.29683845,70.593212,164.24112)"
       style="display:inline">
      <rect
         style="display:none;fill:#940000;fill-opacity:1;stroke-width:0.930517;paint-order:stroke fill markers"
         id="rect2638"
         width="570.04401"
         height="433.68274"
         x="-147.34779"
         y="-198.517"
         rx="23.1978"
         ry="23.783796"
         transform="matrix(0.99092804,0.13439353,-0.12909277,0.99163252,0,0)" />
      <rect
         style="display:inline;fill:#000000;fill-opacity:0;stroke:url(#linearGradient2368);stroke-width:6.11988;stroke-dasharray:none;stroke-opacity:1;paint-order:stroke fill markers"
         id="rect2365"
         width="48.230145"
         height="47.579281"
         x="21.157661"
         y="25.764013"
         rx="24.115072"
         ry="23.78964"
         transform="matrix(0.99998266,0.00588861,0.00590417,0.99998257,0,0)" />
      <path
         style="display:inline;fill:#000000;fill-opacity:1;stroke:url(#linearGradient2378);stroke-width:1.75845;stroke-dasharray:none;stroke-opacity:1;paint-order:stroke fill markers"
         d="m 66.488186,44.392774 c 10.358296,-3.52137 0.785279,13.452014 13.660421,17.608458 43.421053,2.671251 52.078283,0.685915 130.081873,0.132335 l -19.14633,11.465009 -113.112437,0.568033 -32.862109,0.98069 c 0,0 11.380129,-3.323632 17.719904,-10.402846 4.960976,-5.539599 5.560955,-14.107217 3.658678,-20.351679 z"
         id="path10478" />
      <rect
         style="display:inline;fill:#940000;fill-opacity:0;stroke:url(#linearGradient897);stroke-width:6;stroke-dasharray:none;stroke-opacity:1;paint-order:stroke fill markers"
         id="rect10581"
         width="46.265961"
         height="47.675076"
         x="22.545849"
         y="24.894375"
         rx="23.13298"
         ry="23.837538" />
    </g>
    <rect
       style="display:inline;fill:url(#linearGradient12609);fill-opacity:1;stroke:#ffffff;stroke-width:0.598972;stroke-linejoin:bevel;stroke-opacity:1;paint-order:stroke fill markers"
       id="rect1902"
       width="119.40102"
       height="59.401028"
       x="45.299492"
       y="118.79948"
       rx="2.8001006"
       ry="4.1177845" />
    <path
       style="display:inline;fill:#ffffff;fill-opacity:0;stroke:url(#linearGradient3881);stroke-width:0.8;stroke-linejoin:bevel;stroke-dasharray:none;stroke-dashoffset:0.4;stroke-opacity:1;paint-order:stroke fill markers"
       id="rect234"
       width="115.90252"
       height="56.137379"
       x="47.04874"
       y="120.43131"
       rx="2.7180564"
       ry="3.8915422"
       d="m 49.12453,120.5397 c 0.205795,-0.0709 0.420858,-0.10839 0.642267,-0.10839 l 0.657538,0 m 1.315076,0 h 1.315076 m 1.315077,0 h 1.315076 m 1.315076,0 h 1.315077 m 1.315076,0 h 1.315076 m 1.315076,0 h 1.315077 m 1.315076,0 h 1.315076 m 1.315076,0 h 1.315077 m 1.315076,0 h 1.315076 m 1.315076,0 h 1.315077 m 1.315076,0 1.315076,0 m 1.315077,0 1.315076,0 m 1.315076,0 h 1.315076 m 1.315077,0 h 1.315076 m 1.315076,0 h 1.315076 m 1.315077,0 h 1.315076 m 1.315076,0 h 1.315076 m 1.315077,0 h 1.315076 m 1.315076,0 h 1.315077 m 1.315076,0 h 1.315073 m 1.31508,0 h 1.31508 m 1.31507,0 h 1.31508 m 1.31507,0 h 1.31508 m 1.31508,0 h 1.31507 m 1.31508,0 h 1.31508 m 1.31507,0 h 1.31508 m 1.31507,0 h 1.31508 m 1.31508,0 h 1.31507 m 1.31508,0 h 1.31508 m 1.31507,0 h 1.31508 m 1.31507,0 h 1.31508 m 1.31508,0 h 1.31507 m 1.31508,0 h 1.31508 m 1.31507,0 h 1.31508 m 1.31507,0 h 1.31508 m 1.31508,0 h 1.31507 m 1.31508,0 h 1.31508 m 1.31507,0 h 1.31508 m 1.31507,0 h 1.31508 m 1.31508,0 h 1.31507 m 1.31508,0 h 1.31508 m 1.31507,0 h 1.31508 m 1.31508,0 h 0.65753 c 0.22143,0 0.43651,0.0375 0.64231,0.10841 m 1.05898,0.74365 c 0.26857,0.30811 0.4951,0.68795 0.66568,1.1196 m 0.31333,1.26699 c 0.0248,0.21218 0.0378,0.4303 0.0378,0.65289 v 0.67159 m 0,1.34318 v 1.34317 m 0,1.34318 v 1.34317 m 0,1.34318 v 1.34317 m 0,1.34318 v 1.34317 m 0,1.34318 v 1.34317 m 0,1.34318 v 1.34317 m 0,1.34318 v 1.34317 m 0,1.34317 v 1.34318 m 0,1.34317 v 1.34318 m 0,1.34317 v 1.34318 m 0,1.34317 v 1.34318 m 0,1.34317 v 1.34318 m 0,1.34317 v 1.34318 m 0,1.34317 v 1.34318 m 0,1.34317 v 1.34318 m 0,1.34317 v 1.34318 m 0,1.34317 v 1.34318 m 0,1.34317 v 0.67159 c 0,0.22261 -0.0129,0.44074 -0.0378,0.65294 m -0.31335,1.26698 c -0.17058,0.43165 -0.39711,0.81149 -0.66569,1.1196 m -1.05899,0.74363 c -0.2058,0.0709 -0.42086,0.10839 -0.64227,0.10839 h -0.65753 m -1.31508,0 h -1.31508 m -1.31507,0 -1.31508,0 m -1.31508,0 h -1.31507 m -1.31508,0 h -1.31508 m -1.31507,0 -1.31508,0 m -1.31507,0 -1.31508,0 m -1.31508,0 h -1.31507 m -1.31508,0 h -1.31508 m -1.31507,0 h -1.31508 m -1.31507,0 h -1.31508 m -1.31508,0 h -1.31507 m -1.31508,0 h -1.31508 m -1.31507,0 h -1.31508 m -1.31507,0 h -1.31508 m -1.31508,0 h -1.31507 m -1.31508,0 h -1.31508 m -1.31507,0 h -1.31508 m -1.31507,0 h -1.31508 m -1.31508,0 h -1.31507 m -1.31508,0 h -1.31508 m -1.31507,0 h -1.31508 m -1.31507,0 h -1.31508 m -1.31508,0 h -1.315073 m -1.315076,0 h -1.315077 m -1.315076,0 h -1.315076 m -1.315077,0 h -1.315076 m -1.315076,0 h -1.315076 m -1.315077,0 h -1.315076 m -1.315076,0 h -1.315076 m -1.315077,0 h -1.315076 m -1.315076,0 h -1.315076 m -1.315077,0 h -1.315076 m -1.315076,0 h -1.315077 m -1.315076,0 h -1.315076 m -1.315076,0 h -1.315077 m -1.315076,0 h -1.315076 m -1.315076,0 h -1.315077 m -1.315076,0 h -1.315076 m -1.315076,0 h -1.315077 m -1.315076,0 h -1.315076 m -1.315077,0 h -1.315076 m -1.315076,0 h -0.657538 c -0.221425,0 -0.436502,-0.0375 -0.642311,-0.1084 m -1.058981,-0.74365 c -0.268568,-0.30812 -0.495094,-0.68796 -0.665674,-1.11961 m -0.313333,-1.26698 c -0.02483,-0.21219 -0.03776,-0.4303 -0.03776,-0.6529 l 0,-0.67159 m 0,-1.34317 0,-1.34318 m 0,-1.34317 v -1.34318 m 0,-1.34317 v -1.34318 m 0,-1.34317 v -1.34318 m 0,-1.34317 v -1.34318 m 0,-1.34317 v -1.34318 m 0,-1.34317 v -1.34318 m 0,-1.34317 v -1.34318 m 0,-1.34317 v -1.34318 m 0,-1.34317 v -1.34318 m 0,-1.34317 v -1.34317 m 0,-1.34318 v -1.34317 m 0,-1.34318 v -1.34317 m 0,-1.34318 v -1.34317 m 0,-1.34318 v -1.34317 m 0,-1.34318 v -1.34317 m 0,-1.34318 v -1.34317 m 0,-1.34318 v -0.67159 c 0,-0.22261 0.01292,-0.44074 0.03776,-0.65294 m 0.313344,-1.26698 c 0.170584,-0.43165 0.397115,-0.81149 0.665687,-1.1196 m 1.058995,-0.74363 c 0.205795,-0.0709 0.420858,-0.10839 0.642267,-0.10839" />
    <text
       xml:space="preserve"
       style="font-style:normal;font-variant:normal;font-weight:bold;font-stretch:normal;font-size:19.7556px;font-family:'Berlin Sans FB';-inkscape-font-specification:'Berlin Sans FB, Bold';font-variant-ligatures:normal;font-variant-caps:normal;font-variant-numeric:normal;font-variant-east-asian:normal;fill:url(#linearGradient8063);fill-opacity:1;stroke:#000000;stroke-width:0.112171;stroke-linejoin:bevel;paint-order:stroke fill markers"
       x="98.026779"
       y="154.14832"
       id="text290"
       transform="scale(1.0760898,0.92929048)"><tspan
         id="tspan288"
         style="font-style:normal;font-variant:normal;font-weight:bold;font-stretch:normal;font-size:19.7556px;font-family:'Berlin Sans FB';-inkscape-font-specification:'Berlin Sans FB, Bold';font-variant-ligatures:normal;font-variant-caps:normal;font-variant-numeric:normal;font-variant-east-asian:normal;text-align:center;text-anchor:middle;fill:url(#linearGradient8063);fill-opacity:1;stroke-width:0.112171"
         x="98.026779"
         y="154.14832">LOAD</tspan><tspan
         style="font-style:normal;font-variant:normal;font-weight:bold;font-stretch:normal;font-size:19.7556px;font-family:'Berlin Sans FB';-inkscape-font-specification:'Berlin Sans FB, Bold';font-variant-ligatures:normal;font-variant-caps:normal;font-variant-numeric:normal;font-variant-east-asian:normal;text-align:center;text-anchor:middle;fill:url(#linearGradient8063);fill-opacity:1;stroke-width:0.112171"
         x="98.026779"
         y="178.84282"
         id="tspan12338">COUPON</tspan></text>
    <g
       id="g7168"
       style="fill:url(#linearGradient7180);fill-opacity:1;stroke:#ffffff;stroke-opacity:0"
       transform="translate(9.7205175,1.8231226)">
      <rect
         style="fill:url(#linearGradient10192);fill-opacity:1;stroke:#ffffff;stroke-opacity:0;paint-order:stroke fill markers"
         id="rect5383"
         width="4.9188204"
         height="4.9188209"
         x="126.25112"
         y="166.94177"
         rx="2.4594102"
         ry="2.4594104" />
      <rect
         style="fill:url(#linearGradient10194);fill-opacity:1;stroke:#ffffff;stroke-opacity:0;paint-order:stroke fill markers"
         id="rect7101"
         width="5.9025841"
         height="5.9025841"
         x="134.24422"
         y="166.44989"
         rx="2.951292"
         ry="2.951292" />
      <rect
         style="fill:url(#linearGradient10196);fill-opacity:1;stroke:#ffffff;stroke-opacity:0;paint-order:stroke fill markers"
         id="rect7103"
         width="6.8863487"
         height="6.8863482"
         x="143.41161"
         y="165.95801"
         rx="3.4431744"
         ry="3.4431741" />
    </g>
    <g
       id="g11371"
       transform="matrix(0.22999652,-0.16009403,-0.13855768,-0.25508248,86.047333,213.16614)">
      <rect
         style="display:inline;fill:#000000;fill-opacity:0;stroke:url(#linearGradient2359);stroke-width:6.1502;stroke-dasharray:none;stroke-opacity:1;paint-order:stroke fill markers"
         id="rect2351"
         width="47.741871"
         height="48.543156"
         x="22.378826"
         y="25.150307"
         rx="23.870935"
         ry="24.271578"
         transform="matrix(0.99991042,-0.01338508,-0.01302079,0.99991523,0,0)" />
      <path
         style="fill:url(#linearGradient11432);fill-opacity:1;stroke:url(#linearGradient2357);stroke-width:1.75845;stroke-dasharray:none;stroke-opacity:1;paint-order:stroke fill markers"
         d="m 66.488186,44.392774 c 10.358296,-3.52137 0.785279,13.452014 13.660421,17.608458 43.421053,2.671251 52.078283,0.685915 130.081873,0.132335 l -19.14633,11.465009 -113.112437,0.568033 -32.862109,0.98069 c 0,0 11.380129,-3.323632 17.719904,-10.402846 4.960976,-5.539599 5.560955,-14.107217 3.658678,-20.351679 z"
         id="path11367"
         transform="translate(3.3148409e-6)" />
      <rect
         style="display:inline;fill:#940000;fill-opacity:0.00956936;stroke:url(#linearGradient895);stroke-width:6;stroke-dasharray:none;stroke-opacity:1;paint-order:stroke fill markers"
         id="rect11369"
         width="46.265961"
         height="47.675076"
         x="22.545849"
         y="24.894375"
         rx="23.13298"
         ry="23.837538" />
    </g>
  </g>
</svg>
